<?xml version="1.0" encoding="iso-8859-1"?>
<!-- Generator: Adobe Illustrator 16.0.0, SVG Export Plug-In . SVG Version: 6.00 Build 0)  -->
<!DOCTYPE svg PUBLIC "-//W3C//DTD SVG 1.1//EN" "http://www.w3.org/Graphics/SVG/1.1/DTD/svg11.dtd">
<svg version="1.1" id="Capa_1" xmlns="http://www.w3.org/2000/svg" xmlns:xlink="http://www.w3.org/1999/xlink" x="0px" y="0px"
	 width="45.874px" height="45.874px" viewBox="0 0 45.874 45.874" style="enable-background:new 0 0 45.874 45.874;"
	 xml:space="preserve">
	<path fill="#fff" d="M41.384,34.764c-1.597-0.697-3.457,0.035-4.152,1.635c-0.091,0.207-0.157,0.423-0.2,0.638l-8.841-3.847l8.84-3.846
		c0.043,0.215,0.109,0.43,0.2,0.637c0.695,1.599,2.556,2.33,4.152,1.635c1.598-0.693,2.33-2.553,1.635-4.15
		c-0.474-1.09-1.489-1.775-2.593-1.883c0.674-0.88,0.865-2.091,0.391-3.181c-0.694-1.598-2.554-2.328-4.151-1.635
		c-1.599,0.695-2.329,2.556-1.635,4.153c0.092,0.209,0.203,0.403,0.33,0.582l-12.421,5.402l-12.423-5.402
		c0.128-0.179,0.24-0.373,0.331-0.582c0.695-1.598-0.037-3.458-1.634-4.153c-1.599-0.693-3.458,0.037-4.152,1.635
		c-0.474,1.09-0.284,2.301,0.391,3.181c-1.104,0.107-2.12,0.793-2.593,1.883c-0.695,1.598,0.037,3.457,1.634,4.15
		c1.597,0.695,3.457-0.036,4.152-1.635c0.091-0.207,0.157-0.422,0.2-0.637l8.84,3.846l-8.842,3.846
		c-0.043-0.215-0.109-0.43-0.2-0.639c-0.695-1.599-2.555-2.33-4.152-1.635c-1.597,0.694-2.33,2.555-1.634,4.151
		c0.473,1.09,1.489,1.774,2.593,1.883c-0.675,0.88-0.865,2.091-0.391,3.181c0.694,1.599,2.554,2.328,4.152,1.636
		c1.598-0.697,2.33-2.556,1.635-4.153c-0.091-0.21-0.202-0.402-0.33-0.581l12.422-5.403l12.422,5.403
		c-0.127,0.179-0.238,0.371-0.33,0.581c-0.694,1.598,0.037,3.456,1.635,4.153c1.598,0.692,3.458-0.037,4.151-1.636
		c0.475-1.09,0.284-2.301-0.391-3.181c1.104-0.106,2.12-0.793,2.593-1.883C43.714,37.316,42.981,35.457,41.384,34.764z"/>
	<path fill="#fff" d="M13.455,18.745h0.925v3.708c0,1.621,1.334,2.947,2.955,2.947h5.554h0.1h5.555c1.62,0,2.893-1.326,2.893-2.947v-3.708
		h0.985c2.623,0,4.743-2.126,4.743-4.749c0-4.084-1.76-7.971-4.821-10.672C31.042,2.176,27.475,0,22.941,0
		c-4.732,0-8.109,2.174-9.411,3.324c-3.062,2.701-4.82,6.588-4.82,10.672C8.711,16.619,10.833,18.745,13.455,18.745z M26.168,8.107
		h5.396c0.328,0.476,0.52,1.094,0.52,1.739c0,1.776-1.44,3.204-3.218,3.204c-1.776,0-3.218-1.428-3.218-3.204
		C25.648,9.201,25.84,8.583,26.168,8.107z M20.603,15.349l1.743-2.98c0.123-0.211,0.349-0.339,0.592-0.341
		c0.244,0.002,0.47,0.13,0.592,0.341l1.743,2.98c0.125,0.214,0.125,0.472,0.002,0.685c-0.123,0.215-0.351,0.335-0.598,0.335h-1.689
		h-0.1h-1.689c-0.248,0-0.476-0.12-0.599-0.335C20.477,15.82,20.479,15.562,20.603,15.349z M14.312,8.107h5.397
		c0.328,0.476,0.519,1.094,0.519,1.739c0,1.776-1.441,3.204-3.217,3.204c-1.777,0-3.217-1.428-3.217-3.204
		C13.793,9.201,13.984,8.583,14.312,8.107z"/>
</svg>
